<svg xmlns="http://www.w3.org/2000/svg" viewBox="0 0 1680 640" width="1680" height="640" role="img" aria-label="Accepted against not accepted, counted and estimated" font-family="&#x27;Noto Sans&#x27;, &#x27;DejaVu Sans&#x27;, sans-serif"><text x="40.0" y="40.0" font-size="34" fill="#1d1d1f" text-anchor="start" font-weight="700">ICLR: đếm được</text><path d="M260.0,300.0 L260.0,90.0 A210,210 0 0 1 464.4,251.8 Z" fill="#2a78d6" stroke="#fcfcfb" stroke-width="4"/><path d="M260.0,300.0 L464.4,251.8 A210,210 0 1 1 260.0,90.0 Z" fill="#e34948" stroke="#fcfcfb" stroke-width="4"/><text x="520.0" y="250.0" font-size="56" fill="#1d1d1f" text-anchor="start" font-weight="700">21%</text><text x="520.0" y="296.0" font-size="28" fill="#4a4a4f" text-anchor="start" font-weight="400">được nhận</text><text x="520.0" y="340.0" font-size="28" fill="#77777c" text-anchor="start" font-weight="400">13 / 61</text><text x="900.0" y="40.0" font-size="34" fill="#1d1d1f" text-anchor="start" font-weight="700">Cả năm hội nghị: ước tính</text><path d="M1120.0,300.0 L1120.0,90.0 A210,210 0 0 1 1314.4,379.4 Z" fill="#2a78d6" stroke="#fcfcfb" stroke-width="4"/><path d="M1120.0,300.0 L1314.4,379.4 A210,210 0 1 1 1120.0,90.0 Z" fill="#f4c2c1" stroke="#e34948" stroke-width="4" stroke-dasharray="12 8"/><text x="1380.0" y="250.0" font-size="56" fill="#1d1d1f" text-anchor="start" font-weight="700">31%</text><text x="1380.0" y="296.0" font-size="28" fill="#4a4a4f" text-anchor="start" font-weight="400">được nhận</text><text x="1380.0" y="340.0" font-size="28" fill="#77777c" text-anchor="start" font-weight="400">120 / ~385</text><text x="40.0" y="600.0" font-size="24" fill="#77777c" text-anchor="start" font-weight="400">Phần đỏ nhạt là ước tính: tỉ lệ ICLR của từng người áp cho bốn hội nghị còn lại. Một bài của hai người được tính hai lượt.</text></svg>